<svg xmlns="http://www.w3.org/2000/svg" width="662" height="611" viewBox="0 0 662 611" version="1.1"><path d="M 415 4.106 C 366.338 9.600, 320.420 32.848, 289.789 67.500 C 274.563 84.725, 260.376 108.656, 253.036 129.500 C 246.842 147.087, 242.063 170.686, 242.018 183.906 L 242 189.312 261.250 170.395 C 281.518 150.478, 290.369 143.222, 303.500 135.760 C 334.067 118.389, 372.880 113.422, 406.902 122.527 C 458.896 136.441, 496.900 177.238, 507.698 230.730 C 510.454 244.379, 510.181 271.259, 507.148 284.919 C 504.298 297.758, 501.092 306.848, 495.358 318.344 C 486.732 335.640, 480.751 343.255, 456.065 368.373 L 438.500 386.247 448.971 385.604 C 469.974 384.314, 496.488 377.159, 516.707 367.322 C 594.999 329.236, 638.135 242.595, 620.970 157.907 C 608.767 97.700, 570.258 48.032, 515.500 21.876 C 485.233 7.418, 446.432 0.558, 415 4.106 M 85 108.276 C 62.254 116.059, 48.973 134.079, 48.721 157.500 C 48.605 168.209, 50.590 175.827, 55.756 184.500 C 59.895 191.448, 133.534 266.326, 140.946 271.123 C 149.570 276.704, 157.314 274.575, 168.283 263.606 L 174.710 257.179 186.588 269.088 L 198.465 280.997 163.289 316.248 C 143.942 335.637, 127.638 352.767, 127.057 354.315 C 126.428 355.989, 126 366.321, 126 379.802 L 126 402.473 112.758 415.743 L 99.515 429.013 149.251 478.749 L 198.987 528.485 212.257 515.242 L 225.527 502 248.303 502 C 268.803 502, 271.451 501.808, 274.790 500.081 C 276.899 498.990, 316.088 460.468, 365.583 410.831 C 438.314 337.894, 453.590 322.096, 458.271 314.983 C 465.237 304.396, 469.391 295.261, 472.815 283 C 475.210 274.427, 475.469 271.842, 475.469 256.500 C 475.469 241.066, 475.218 238.599, 472.749 229.717 C 461.646 189.774, 430.571 161, 390.372 153.442 C 383.659 152.180, 378.093 151.896, 367.500 152.274 C 352.106 152.824, 343.552 154.631, 330.379 160.115 C 314.087 166.897, 307.531 172.376, 264.223 215.401 L 223.946 255.415 212.073 243.573 L 200.200 231.731 206.988 224.943 C 217.526 214.405, 219.584 205.780, 213.616 197.167 C 212.211 195.140, 193.385 175.911, 171.780 154.436 C 130.194 113.100, 128.199 111.452, 115.068 107.595 C 106.921 105.202, 93.066 105.516, 85 108.276 M 357.500 202.532 C 356.950 202.693, 355.190 203.116, 353.588 203.472 C 350.106 204.246, 325.210 228.189, 320.861 234.946 C 312.358 248.159, 324.297 264.390, 339.690 260.545 C 342.884 259.747, 372.226 231.278, 374.690 226.586 C 378.242 219.824, 374.273 208.197, 367.198 204.642 C 364.291 203.181, 359.122 202.056, 357.500 202.532 M 400.500 253.899 C 395.714 256.918, 369.205 284.215, 368.049 287.315 C 365.491 294.178, 368.156 302.839, 374.136 307.097 C 378.377 310.117, 386.492 310.809, 391.240 308.557 C 395.562 306.505, 422.552 279.310, 423.972 275.574 C 428.325 264.125, 420.415 251.995, 408.602 252.004 C 405.326 252.006, 402.426 252.685, 400.500 253.899 M 60.719 467.955 C 53.291 475.630, 45.073 485.129, 42.457 489.064 C 27.664 511.317, 26.335 537.581, 38.794 561.484 C 44.012 571.496, 56.011 583.279, 66.527 588.718 C 81.120 596.265, 95.728 599.086, 109.500 597.017 C 119.810 595.467, 129.957 591.511, 138.936 585.543 C 146.326 580.630, 174 554.656, 174 552.634 C 174 551.147, 76.846 454, 75.359 454 C 74.735 454, 68.147 460.280, 60.719 467.955" stroke="none" fill="#fffcfc" fill-rule="evenodd"/></svg>